<?xml version="1.0" encoding="UTF-8" standalone="no"?>
<!DOCTYPE svg PUBLIC "-//W3C//DTD SVG 1.1//EN" "http://www.w3.org/Graphics/SVG/1.1/DTD/svg11.dtd">
<svg width="100%" height="100%" viewBox="0 0 165 134" version="1.1" xmlns="http://www.w3.org/2000/svg" xmlns:xlink="http://www.w3.org/1999/xlink" xml:space="preserve" xmlns:serif="http://www.serif.com/" style="fill-rule:evenodd;clip-rule:evenodd;stroke-linejoin:round;stroke-miterlimit:2;">
    <g transform="matrix(1,0,0,1,-1120,-377.879)">
        <g>
            <path d="M1281.12,464.055C1265.87,504.892 1208.95,515.386 1121.93,510.239L1120,426.211L1167.43,407.136C1174.34,396.354 1178.99,385.237 1192.82,377.879C1202.63,384.266 1211,392.966 1213.91,405.977C1237.59,410.144 1247.44,419.73 1250.01,434.687C1257.91,436.115 1265.7,439.487 1272.73,444.155L1272.66,444.111C1269.74,448.793 1269.16,452.888 1270.62,456.256C1272.06,459.547 1275.53,462.237 1281.12,464.055ZM1151.96,447.33C1144.09,449.473 1137.17,453.13 1132.1,457.516L1130.18,459.182L1130.04,456.642C1129.32,443.854 1136.54,433.549 1154.46,422.088L1155.52,421.414L1156.86,423.52L1155.81,424.194C1140.15,434.211 1132.91,443.11 1132.51,453.969C1138.22,449.612 1145.71,446.092 1154.09,444.229L1156.73,443.643L1155.47,446.032C1150.7,455.084 1145.4,464.878 1144.16,473.757C1146.03,472.878 1148.27,471.875 1150.2,471.733C1153.14,471.515 1156.66,471.866 1161.24,473.176L1162.93,473.66L1161.92,475.097C1157.51,481.367 1153.99,487.89 1156.43,496.032C1160.08,490.238 1165.12,487.299 1172.2,488.625L1173.43,488.855L1172.97,491.312L1171.74,491.082C1164.95,489.812 1160.48,493.32 1157.31,499.562L1156.11,501.935L1155.05,499.494C1150.88,489.887 1154.06,482.288 1158.86,475.129C1155.45,474.287 1152.72,474.053 1150.38,474.226C1147.97,474.404 1145.04,476.164 1143.19,476.959L1141.32,477.764L1141.45,475.732C1142.01,466.787 1147.02,456.741 1151.96,447.33ZM1274.73,445.526C1278.03,447.885 1281.15,450.527 1284.01,453.381C1283.49,456.292 1282.8,459.061 1281.94,461.694C1277.2,460.159 1274.13,458.046 1272.91,455.258C1271.73,452.546 1272.4,449.289 1274.73,445.526ZM1220.52,429.529C1217.2,428.337 1213.97,426.75 1210.76,425.099L1209.65,424.528L1208.5,426.751L1209.62,427.323C1211.95,428.524 1214.3,429.686 1216.68,430.697C1215.47,431.68 1214.69,433.185 1214.69,434.87C1214.69,437.829 1217.09,440.231 1220.05,440.231C1223.01,440.231 1225.41,437.829 1225.41,434.87C1225.41,434.38 1225.34,433.905 1225.22,433.454C1226.74,433.764 1228.28,433.972 1229.85,434.054L1231.09,434.12L1231.22,431.623L1229.98,431.558C1227.52,431.429 1225.15,430.969 1222.83,430.286C1222.14,429.869 1221.36,429.602 1220.52,429.529ZM1191.6,385.169C1185.18,390.694 1179.25,396.092 1176.86,404.868L1176.47,406.315L1179.36,407.103L1179.76,405.656C1181.98,397.505 1187.59,392.575 1193.56,387.443L1194.7,386.465L1192.74,384.191L1191.6,385.169Z"/>
        </g>
    </g>
</svg>
