<?xml version="1.0" encoding="UTF-8" standalone="no"?>
<!DOCTYPE svg PUBLIC "-//W3C//DTD SVG 1.1//EN" "http://www.w3.org/Graphics/SVG/1.1/DTD/svg11.dtd">
<svg width="100%" height="100%" viewBox="0 0 157 182" version="1.1" xmlns="http://www.w3.org/2000/svg" xmlns:xlink="http://www.w3.org/1999/xlink" xml:space="preserve" xmlns:serif="http://www.serif.com/" style="fill-rule:evenodd;clip-rule:evenodd;stroke-linejoin:round;stroke-miterlimit:2;">
    <g transform="matrix(1,0,0,1,-919.005,-376.338)">
        <g transform="matrix(1,0,0,1,818.356,0)">
            <path d="M166.537,499.029C168.704,497.924 147.953,464.966 140.625,459.237C127.071,453.365 113.701,446.29 100.649,437.135C101.11,433.407 102.011,429.679 103.924,425.951C106.828,426.011 109.057,426.815 110.598,428.38C113.29,430.818 114.826,433.709 115.646,436.88C119.907,439.042 124.231,441.96 129.065,443.35L136.268,444.13C133.936,437.273 133.164,430.735 133.846,423.696C129.552,410.648 124.642,397.225 116.174,387.151C124.965,391.322 131.376,401.76 138.542,417.846L140.625,416.479C140.711,400.835 134.37,390.414 116.193,387.16C124.41,377.756 135.348,374.817 148.462,377.047C159.005,379.047 165.943,384.622 169.275,393.77C163.439,398.667 161.349,405.741 161.527,414.132C174.097,431.481 188.167,447.525 202.995,462.907C198.26,462.805 193.404,462.258 188.243,460.586C194.708,463.889 203.311,467.83 209.17,471.421C223.474,481.812 236.631,493.602 247.747,507.885C249.803,511.86 250.511,515.154 245.941,515.171C244.038,516.366 240.44,516.074 236.628,515.644C235.66,519.944 238.93,522.047 245.712,522.331C250.414,530.449 254.789,538.572 257.165,546.73C245.318,541.907 234.312,533.764 223.481,524.933C204.231,532.204 187.002,535.21 170.899,535.838C165.477,536.595 164.617,532.803 165.286,527.487C167.077,518.101 167.5,508.615 166.537,499.029Z"/>
            <path d="M133.399,537.06C130.089,528.479 127.706,520.516 126.436,513.105C125.119,505.429 125.442,498.518 126.637,492.402C127.384,489.878 129.187,487.801 131.581,486.705C135.274,484.728 139.035,483.363 142.847,482.35C148.051,480.966 153.335,480.451 158.518,479.608C164.025,478.837 169.122,482.682 169.893,488.19C170.664,493.697 166.819,498.794 161.312,499.565C156.6,500.118 151.843,500.521 147.053,501.37C145.581,501.631 144.095,501.882 142.609,502.235C141.852,505.248 141.397,508.56 141.233,512.182C140.887,519.819 141.278,528.336 142.639,537.799C143.172,539.78 142.194,541.855 140.327,542.703C140.327,542.703 128.704,546.703 124.138,548.316C123.711,548.466 123.36,548.778 123.065,548.702C120.671,548.083 120.009,547.633 120.037,547.321C119.783,547.137 119.88,546.342 120.988,544.132C121.125,543.86 121.591,543.8 121.985,543.577C124.655,542.071 129.905,539.065 133.399,537.06Z"/>
        </g>
    </g>
</svg>
